<svg xmlns="http://www.w3.org/2000/svg" width="32" height="32" fill="none"><path fill="#fff" fill-rule="evenodd" d="M4.566 28.223c1.737.54 3.69.108 5.03-1.187.33-.319.823-.399 1.238-.2a11.9 11.9 0 0 0 5.358 1.166c6.63-.098 11.825-5.37 11.825-12 0-6.486-5.276-11.87-11.761-12C9.572 3.87 4.016 9.282 4 15.972c-.003 1.439.372 2.683.757 3.958.189.624.38 1.255.53 1.92a9.8 9.8 0 0 1-.72 6.373M11.5 16a1.5 1.5 0 1 1-3 0 1.5 1.5 0 0 1 3 0m4.5 1.5a1.5 1.5 0 1 0 0-3 1.5 1.5 0 0 0 0 3m6 0a1.5 1.5 0 1 0 0-3 1.5 1.5 0 0 0 0 3" clip-rule="evenodd"/></svg>